<?xml version="1.0" encoding="UTF-8" standalone="no"?>
<!DOCTYPE svg PUBLIC "-//W3C//DTD SVG 1.1//EN"
 "http://www.w3.org/Graphics/SVG/1.1/DTD/svg11.dtd">
<!-- Generated by graphviz version 2.36.0 (20140111.2315)
 -->
<!-- Title: G Pages: 1 -->
<svg width="1307pt" height="821pt"
 viewBox="0.00 0.00 1307.20 820.99" xmlns="http://www.w3.org/2000/svg" xmlns:xlink="http://www.w3.org/1999/xlink">
<g id="graph0" class="graph" transform="scale(1 1) rotate(0) translate(21.6 799.391)">
<title>G</title>
<polygon fill="#111111" stroke="none" points="-21.6,21.6 -21.6,-799.391 1285.6,-799.391 1285.6,21.6 -21.6,21.6"/>
<!-- copy&#45;sync/copy&#45;sync.js -->
<g id="node1" class="node"><title>copy&#45;sync/copy&#45;sync.js</title>
<path fill="none" stroke="#c6c5fe" d="M800.333,-681.291C800.333,-681.291 655.667,-681.291 655.667,-681.291 651.833,-681.291 648,-677.457 648,-673.624 648,-673.624 648,-665.957 648,-665.957 648,-662.124 651.833,-658.291 655.667,-658.291 655.667,-658.291 800.333,-658.291 800.333,-658.291 804.167,-658.291 808,-662.124 808,-665.957 808,-665.957 808,-673.624 808,-673.624 808,-677.457 804.167,-681.291 800.333,-681.291"/>
<text text-anchor="middle" x="728" y="-666.091" font-family="Arial" font-size="14.00" fill="#c6c5fe">copy&#45;sync/copy&#45;sync.js</text>
</g>
<!-- mkdirs/index.js -->
<g id="node2" class="node"><title>mkdirs/index.js</title>
<path fill="none" stroke="#c6c5fe" d="M960.833,-405.291C960.833,-405.291 867.167,-405.291 867.167,-405.291 863.333,-405.291 859.5,-401.457 859.5,-397.624 859.5,-397.624 859.5,-389.957 859.5,-389.957 859.5,-386.124 863.333,-382.291 867.167,-382.291 867.167,-382.291 960.833,-382.291 960.833,-382.291 964.667,-382.291 968.5,-386.124 968.5,-389.957 968.5,-389.957 968.5,-397.624 968.5,-397.624 968.5,-401.457 964.667,-405.291 960.833,-405.291"/>
<text text-anchor="middle" x="914" y="-390.091" font-family="Arial" font-size="14.00" fill="#c6c5fe">mkdirs/index.js</text>
</g>
<!-- copy&#45;sync/copy&#45;sync.js&#45;&gt;mkdirs/index.js -->
<g id="edge1" class="edge"><title>copy&#45;sync/copy&#45;sync.js&#45;&gt;mkdirs/index.js</title>
<path fill="none" stroke="#757575" d="M786.038,-658.499C794.784,-654.88 803.162,-650.101 810,-643.791 845.501,-611.029 890.496,-469.349 906.771,-415.065"/>
<polygon fill="#757575" stroke="#757575" points="910.223,-415.737 909.714,-405.154 903.512,-413.745 910.223,-415.737"/>
</g>
<!-- util/stat.js -->
<g id="node3" class="node"><title>util/stat.js</title>
<path fill="none" stroke="#c6c5fe" d="M943.833,-681.291C943.833,-681.291 884.167,-681.291 884.167,-681.291 880.333,-681.291 876.5,-677.457 876.5,-673.624 876.5,-673.624 876.5,-665.957 876.5,-665.957 876.5,-662.124 880.333,-658.291 884.167,-658.291 884.167,-658.291 943.833,-658.291 943.833,-658.291 947.667,-658.291 951.5,-662.124 951.5,-665.957 951.5,-665.957 951.5,-673.624 951.5,-673.624 951.5,-677.457 947.667,-681.291 943.833,-681.291"/>
<text text-anchor="middle" x="914" y="-666.091" font-family="Arial" font-size="14.00" fill="#c6c5fe">util/stat.js</text>
</g>
<!-- copy&#45;sync/copy&#45;sync.js&#45;&gt;util/stat.js -->
<g id="edge2" class="edge"><title>copy&#45;sync/copy&#45;sync.js&#45;&gt;util/stat.js</title>
<path fill="none" stroke="#757575" d="M808.1,-669.791C827.968,-669.791 848.653,-669.791 866.353,-669.791"/>
<polygon fill="#757575" stroke="#757575" points="866.4,-673.291 876.4,-669.791 866.4,-666.291 866.4,-673.291"/>
</g>
<!-- util/utimes.js -->
<g id="node4" class="node"><title>util/utimes.js</title>
<path fill="none" stroke="#cfffac" d="M953.333,-620.291C953.333,-620.291 874.667,-620.291 874.667,-620.291 870.833,-620.291 867,-616.457 867,-612.624 867,-612.624 867,-604.957 867,-604.957 867,-601.124 870.833,-597.291 874.667,-597.291 874.667,-597.291 953.333,-597.291 953.333,-597.291 957.167,-597.291 961,-601.124 961,-604.957 961,-604.957 961,-612.624 961,-612.624 961,-616.457 957.167,-620.291 953.333,-620.291"/>
<text text-anchor="middle" x="914" y="-605.091" font-family="Arial" font-size="14.00" fill="#cfffac">util/utimes.js</text>
</g>
<!-- copy&#45;sync/copy&#45;sync.js&#45;&gt;util/utimes.js -->
<g id="edge3" class="edge"><title>copy&#45;sync/copy&#45;sync.js&#45;&gt;util/utimes.js</title>
<path fill="none" stroke="#757575" d="M764.528,-658.53C778.693,-654.004 795.135,-648.702 810,-643.791 829.913,-637.212 851.931,-629.755 870.48,-623.42"/>
<polygon fill="#757575" stroke="#757575" points="871.784,-626.673 880.113,-620.125 869.518,-620.05 871.784,-626.673"/>
</g>
<!-- mkdirs/make&#45;dir.js -->
<g id="node26" class="node"><title>mkdirs/make&#45;dir.js</title>
<path fill="none" stroke="#c6c5fe" d="M1140.33,-381.291C1140.33,-381.291 1025.67,-381.291 1025.67,-381.291 1021.83,-381.291 1018,-377.457 1018,-373.624 1018,-373.624 1018,-365.957 1018,-365.957 1018,-362.124 1021.83,-358.291 1025.67,-358.291 1025.67,-358.291 1140.33,-358.291 1140.33,-358.291 1144.17,-358.291 1148,-362.124 1148,-365.957 1148,-365.957 1148,-373.624 1148,-373.624 1148,-377.457 1144.17,-381.291 1140.33,-381.291"/>
<text text-anchor="middle" x="1083" y="-366.091" font-family="Arial" font-size="14.00" fill="#c6c5fe">mkdirs/make&#45;dir.js</text>
</g>
<!-- mkdirs/index.js&#45;&gt;mkdirs/make&#45;dir.js -->
<g id="edge40" class="edge"><title>mkdirs/index.js&#45;&gt;mkdirs/make&#45;dir.js</title>
<path fill="none" stroke="#757575" d="M968.759,-386.065C981.22,-384.274 994.698,-382.337 1007.86,-380.445"/>
<polygon fill="#757575" stroke="#757575" points="1008.44,-383.898 1017.84,-379.011 1007.45,-376.969 1008.44,-383.898"/>
</g>
<!-- fs/index.js -->
<g id="node17" class="node"><title>fs/index.js</title>
<path fill="none" stroke="#cfffac" d="M1255.83,-337.291C1255.83,-337.291 1192.17,-337.291 1192.17,-337.291 1188.33,-337.291 1184.5,-333.457 1184.5,-329.624 1184.5,-329.624 1184.5,-321.957 1184.5,-321.957 1184.5,-318.124 1188.33,-314.291 1192.17,-314.291 1192.17,-314.291 1255.83,-314.291 1255.83,-314.291 1259.67,-314.291 1263.5,-318.124 1263.5,-321.957 1263.5,-321.957 1263.5,-329.624 1263.5,-329.624 1263.5,-333.457 1259.67,-337.291 1255.83,-337.291"/>
<text text-anchor="middle" x="1224" y="-322.091" font-family="Arial" font-size="14.00" fill="#cfffac">fs/index.js</text>
</g>
<!-- util/stat.js&#45;&gt;fs/index.js -->
<g id="edge57" class="edge"><title>util/stat.js&#45;&gt;fs/index.js</title>
<path fill="none" stroke="#757575" d="M937.75,-658.475C951.386,-651.083 968.617,-640.624 982,-628.791 1085.58,-537.208 1178.3,-397.177 1210.74,-345.682"/>
<polygon fill="#757575" stroke="#757575" points="1213.75,-347.464 1216.08,-337.129 1207.82,-343.754 1213.75,-347.464"/>
</g>
<!-- copy&#45;sync/index.js -->
<g id="node5" class="node"><title>copy&#45;sync/index.js</title>
<path fill="none" stroke="#c6c5fe" d="M601.833,-778.291C601.833,-778.291 486.167,-778.291 486.167,-778.291 482.333,-778.291 478.5,-774.457 478.5,-770.624 478.5,-770.624 478.5,-762.957 478.5,-762.957 478.5,-759.124 482.333,-755.291 486.167,-755.291 486.167,-755.291 601.833,-755.291 601.833,-755.291 605.667,-755.291 609.5,-759.124 609.5,-762.957 609.5,-762.957 609.5,-770.624 609.5,-770.624 609.5,-774.457 605.667,-778.291 601.833,-778.291"/>
<text text-anchor="middle" x="544" y="-763.091" font-family="Arial" font-size="14.00" fill="#c6c5fe">copy&#45;sync/index.js</text>
</g>
<!-- copy&#45;sync/index.js&#45;&gt;copy&#45;sync/copy&#45;sync.js -->
<g id="edge4" class="edge"><title>copy&#45;sync/index.js&#45;&gt;copy&#45;sync/copy&#45;sync.js</title>
<path fill="none" stroke="#757575" d="M566.234,-755.474C598.341,-738.362 659.404,-705.817 696.335,-686.134"/>
<polygon fill="#757575" stroke="#757575" points="698.441,-688.978 705.62,-681.186 695.149,-682.8 698.441,-688.978"/>
</g>
<!-- copy/copy.js -->
<g id="node6" class="node"><title>copy/copy.js</title>
<path fill="none" stroke="#c6c5fe" d="M767.333,-601.291C767.333,-601.291 688.667,-601.291 688.667,-601.291 684.833,-601.291 681,-597.457 681,-593.624 681,-593.624 681,-585.957 681,-585.957 681,-582.124 684.833,-578.291 688.667,-578.291 688.667,-578.291 767.333,-578.291 767.333,-578.291 771.167,-578.291 775,-582.124 775,-585.957 775,-585.957 775,-593.624 775,-593.624 775,-597.457 771.167,-601.291 767.333,-601.291"/>
<text text-anchor="middle" x="728" y="-586.091" font-family="Arial" font-size="14.00" fill="#c6c5fe">copy/copy.js</text>
</g>
<!-- copy/copy.js&#45;&gt;mkdirs/index.js -->
<g id="edge5" class="edge"><title>copy/copy.js&#45;&gt;mkdirs/index.js</title>
<path fill="none" stroke="#757575" d="M775.108,-581.168C787.33,-577.306 799.915,-571.753 810,-563.791 861.027,-523.503 892.734,-450.439 905.921,-414.663"/>
<polygon fill="#757575" stroke="#757575" points="909.224,-415.821 909.286,-405.226 902.631,-413.47 909.224,-415.821"/>
</g>
<!-- copy/copy.js&#45;&gt;util/stat.js -->
<g id="edge7" class="edge"><title>copy/copy.js&#45;&gt;util/stat.js</title>
<path fill="none" stroke="#757575" d="M754.972,-601.083C786.936,-614.98 841.374,-638.649 877.265,-654.254"/>
<polygon fill="#757575" stroke="#757575" points="876.296,-657.649 886.862,-658.427 879.087,-651.23 876.296,-657.649"/>
</g>
<!-- copy/copy.js&#45;&gt;util/utimes.js -->
<g id="edge8" class="edge"><title>copy/copy.js&#45;&gt;util/utimes.js</title>
<path fill="none" stroke="#757575" d="M775.431,-594.585C800.149,-597.138 830.739,-600.296 856.792,-602.987"/>
<polygon fill="#757575" stroke="#757575" points="856.596,-606.485 866.903,-604.031 857.315,-599.522 856.596,-606.485"/>
</g>
<!-- path&#45;exists/index.js -->
<g id="node7" class="node"><title>path&#45;exists/index.js</title>
<path fill="none" stroke="#c6c5fe" d="M974.333,-271.291C974.333,-271.291 853.667,-271.291 853.667,-271.291 849.833,-271.291 846,-267.457 846,-263.624 846,-263.624 846,-255.957 846,-255.957 846,-252.124 849.833,-248.291 853.667,-248.291 853.667,-248.291 974.333,-248.291 974.333,-248.291 978.167,-248.291 982,-252.124 982,-255.957 982,-255.957 982,-263.624 982,-263.624 982,-267.457 978.167,-271.291 974.333,-271.291"/>
<text text-anchor="middle" x="914" y="-256.091" font-family="Arial" font-size="14.00" fill="#c6c5fe">path&#45;exists/index.js</text>
</g>
<!-- copy/copy.js&#45;&gt;path&#45;exists/index.js -->
<g id="edge6" class="edge"><title>copy/copy.js&#45;&gt;path&#45;exists/index.js</title>
<path fill="none" stroke="#757575" d="M740.561,-578.265C757.92,-560.369 790.731,-524.156 810,-487.791 835.076,-440.467 824.196,-421.709 846,-372.791 861.274,-338.523 884.583,-301.636 899.294,-279.646"/>
<polygon fill="#757575" stroke="#757575" points="902.315,-281.427 905.024,-271.184 896.519,-277.502 902.315,-281.427"/>
</g>
<!-- path&#45;exists/index.js&#45;&gt;fs/index.js -->
<g id="edge55" class="edge"><title>path&#45;exists/index.js&#45;&gt;fs/index.js</title>
<path fill="none" stroke="#757575" d="M967.597,-271.062C1025.5,-283.47 1117.84,-303.256 1174.19,-315.331"/>
<polygon fill="#757575" stroke="#757575" points="1173.76,-318.82 1184.28,-317.493 1175.23,-311.975 1173.76,-318.82"/>
</g>
<!-- copy/index.js -->
<g id="node8" class="node"><title>copy/index.js</title>
<path fill="none" stroke="#c6c5fe" d="M584.833,-639.291C584.833,-639.291 503.167,-639.291 503.167,-639.291 499.333,-639.291 495.5,-635.457 495.5,-631.624 495.5,-631.624 495.5,-623.957 495.5,-623.957 495.5,-620.124 499.333,-616.291 503.167,-616.291 503.167,-616.291 584.833,-616.291 584.833,-616.291 588.667,-616.291 592.5,-620.124 592.5,-623.957 592.5,-623.957 592.5,-631.624 592.5,-631.624 592.5,-635.457 588.667,-639.291 584.833,-639.291"/>
<text text-anchor="middle" x="544" y="-624.091" font-family="Arial" font-size="14.00" fill="#c6c5fe">copy/index.js</text>
</g>
<!-- copy/index.js&#45;&gt;copy/copy.js -->
<g id="edge9" class="edge"><title>copy/index.js&#45;&gt;copy/copy.js</title>
<path fill="none" stroke="#757575" d="M592.818,-617.807C616.7,-612.82 645.748,-606.756 670.701,-601.546"/>
<polygon fill="#757575" stroke="#757575" points="671.684,-604.916 680.757,-599.446 670.253,-598.064 671.684,-604.916"/>
</g>
<!-- empty/index.js -->
<g id="node9" class="node"><title>empty/index.js</title>
<path fill="none" stroke="#c6c5fe" d="M402.333,-445.291C402.333,-445.291 311.667,-445.291 311.667,-445.291 307.833,-445.291 304,-441.457 304,-437.624 304,-437.624 304,-429.957 304,-429.957 304,-426.124 307.833,-422.291 311.667,-422.291 311.667,-422.291 402.333,-422.291 402.333,-422.291 406.167,-422.291 410,-426.124 410,-429.957 410,-429.957 410,-437.624 410,-437.624 410,-441.457 406.167,-445.291 402.333,-445.291"/>
<text text-anchor="middle" x="357" y="-430.091" font-family="Arial" font-size="14.00" fill="#c6c5fe">empty/index.js</text>
</g>
<!-- empty/index.js&#45;&gt;mkdirs/index.js -->
<g id="edge10" class="edge"><title>empty/index.js&#45;&gt;mkdirs/index.js</title>
<path fill="none" stroke="#757575" d="M410.065,-423.164C431.078,-419.273 455.608,-415.229 478,-412.791 609.428,-398.482 764.303,-394.856 849.249,-393.995"/>
<polygon fill="#757575" stroke="#757575" points="849.288,-397.495 859.256,-393.903 849.224,-390.495 849.288,-397.495"/>
</g>
<!-- remove/index.js -->
<g id="node10" class="node"><title>remove/index.js</title>
<path fill="none" stroke="#c6c5fe" d="M593.833,-445.291C593.833,-445.291 494.167,-445.291 494.167,-445.291 490.333,-445.291 486.5,-441.457 486.5,-437.624 486.5,-437.624 486.5,-429.957 486.5,-429.957 486.5,-426.124 490.333,-422.291 494.167,-422.291 494.167,-422.291 593.833,-422.291 593.833,-422.291 597.667,-422.291 601.5,-426.124 601.5,-429.957 601.5,-429.957 601.5,-437.624 601.5,-437.624 601.5,-441.457 597.667,-445.291 593.833,-445.291"/>
<text text-anchor="middle" x="544" y="-430.091" font-family="Arial" font-size="14.00" fill="#c6c5fe">remove/index.js</text>
</g>
<!-- empty/index.js&#45;&gt;remove/index.js -->
<g id="edge11" class="edge"><title>empty/index.js&#45;&gt;remove/index.js</title>
<path fill="none" stroke="#757575" d="M410.025,-433.791C430.507,-433.791 454.287,-433.791 476.026,-433.791"/>
<polygon fill="#757575" stroke="#757575" points="476.18,-437.291 486.18,-433.791 476.179,-430.291 476.18,-437.291"/>
</g>
<!-- remove/rimraf.js -->
<g id="node29" class="node"><title>remove/rimraf.js</title>
<path fill="none" stroke="#cfffac" d="M778.833,-445.291C778.833,-445.291 677.167,-445.291 677.167,-445.291 673.333,-445.291 669.5,-441.457 669.5,-437.624 669.5,-437.624 669.5,-429.957 669.5,-429.957 669.5,-426.124 673.333,-422.291 677.167,-422.291 677.167,-422.291 778.833,-422.291 778.833,-422.291 782.667,-422.291 786.5,-426.124 786.5,-429.957 786.5,-429.957 786.5,-437.624 786.5,-437.624 786.5,-441.457 782.667,-445.291 778.833,-445.291"/>
<text text-anchor="middle" x="728" y="-430.091" font-family="Arial" font-size="14.00" fill="#cfffac">remove/rimraf.js</text>
</g>
<!-- remove/index.js&#45;&gt;remove/rimraf.js -->
<g id="edge56" class="edge"><title>remove/index.js&#45;&gt;remove/rimraf.js</title>
<path fill="none" stroke="#757575" d="M601.588,-433.791C619.809,-433.791 640.189,-433.791 659.136,-433.791"/>
<polygon fill="#757575" stroke="#757575" points="659.191,-437.291 669.191,-433.791 659.191,-430.291 659.191,-437.291"/>
</g>
<!-- ensure/file.js -->
<g id="node11" class="node"><title>ensure/file.js</title>
<path fill="none" stroke="#c6c5fe" d="M583.833,-283.291C583.833,-283.291 504.167,-283.291 504.167,-283.291 500.333,-283.291 496.5,-279.457 496.5,-275.624 496.5,-275.624 496.5,-267.957 496.5,-267.957 496.5,-264.124 500.333,-260.291 504.167,-260.291 504.167,-260.291 583.833,-260.291 583.833,-260.291 587.667,-260.291 591.5,-264.124 591.5,-267.957 591.5,-267.957 591.5,-275.624 591.5,-275.624 591.5,-279.457 587.667,-283.291 583.833,-283.291"/>
<text text-anchor="middle" x="544" y="-268.091" font-family="Arial" font-size="14.00" fill="#c6c5fe">ensure/file.js</text>
</g>
<!-- ensure/file.js&#45;&gt;mkdirs/index.js -->
<g id="edge12" class="edge"><title>ensure/file.js&#45;&gt;mkdirs/index.js</title>
<path fill="none" stroke="#757575" d="M591.79,-278.092C645.788,-286.373 736.578,-303.425 810,-332.791 838.743,-344.287 868.91,-363.057 889.111,-376.744"/>
<polygon fill="#757575" stroke="#757575" points="887.168,-379.655 897.388,-382.447 891.139,-373.891 887.168,-379.655"/>
</g>
<!-- ensure/index.js -->
<g id="node12" class="node"><title>ensure/index.js</title>
<path fill="none" stroke="#c6c5fe" d="M404.833,-242.291C404.833,-242.291 309.167,-242.291 309.167,-242.291 305.333,-242.291 301.5,-238.457 301.5,-234.624 301.5,-234.624 301.5,-226.957 301.5,-226.957 301.5,-223.124 305.333,-219.291 309.167,-219.291 309.167,-219.291 404.833,-219.291 404.833,-219.291 408.667,-219.291 412.5,-223.124 412.5,-226.957 412.5,-226.957 412.5,-234.624 412.5,-234.624 412.5,-238.457 408.667,-242.291 404.833,-242.291"/>
<text text-anchor="middle" x="357" y="-227.091" font-family="Arial" font-size="14.00" fill="#c6c5fe">ensure/index.js</text>
</g>
<!-- ensure/index.js&#45;&gt;ensure/file.js -->
<g id="edge13" class="edge"><title>ensure/index.js&#45;&gt;ensure/file.js</title>
<path fill="none" stroke="#757575" d="M409.042,-242.103C433.012,-247.415 461.665,-253.765 486.308,-259.227"/>
<polygon fill="#757575" stroke="#757575" points="485.722,-262.682 496.243,-261.428 487.237,-255.848 485.722,-262.682"/>
</g>
<!-- ensure/link.js -->
<g id="node13" class="node"><title>ensure/link.js</title>
<path fill="none" stroke="#c6c5fe" d="M769.333,-251.291C769.333,-251.291 686.667,-251.291 686.667,-251.291 682.833,-251.291 679,-247.457 679,-243.624 679,-243.624 679,-235.957 679,-235.957 679,-232.124 682.833,-228.291 686.667,-228.291 686.667,-228.291 769.333,-228.291 769.333,-228.291 773.167,-228.291 777,-232.124 777,-235.957 777,-235.957 777,-243.624 777,-243.624 777,-247.457 773.167,-251.291 769.333,-251.291"/>
<text text-anchor="middle" x="728" y="-236.091" font-family="Arial" font-size="14.00" fill="#c6c5fe">ensure/link.js</text>
</g>
<!-- ensure/index.js&#45;&gt;ensure/link.js -->
<g id="edge14" class="edge"><title>ensure/index.js&#45;&gt;ensure/link.js</title>
<path fill="none" stroke="#757575" d="M412.845,-232.128C481.541,-233.804 598.729,-236.662 668.912,-238.374"/>
<polygon fill="#757575" stroke="#757575" points="668.832,-241.873 678.914,-238.618 669.003,-234.875 668.832,-241.873"/>
</g>
<!-- ensure/symlink.js -->
<g id="node14" class="node"><title>ensure/symlink.js</title>
<path fill="none" stroke="#c6c5fe" d="M598.333,-171.291C598.333,-171.291 489.667,-171.291 489.667,-171.291 485.833,-171.291 482,-167.457 482,-163.624 482,-163.624 482,-155.957 482,-155.957 482,-152.124 485.833,-148.291 489.667,-148.291 489.667,-148.291 598.333,-148.291 598.333,-148.291 602.167,-148.291 606,-152.124 606,-155.957 606,-155.957 606,-163.624 606,-163.624 606,-167.457 602.167,-171.291 598.333,-171.291"/>
<text text-anchor="middle" x="544" y="-156.091" font-family="Arial" font-size="14.00" fill="#c6c5fe">ensure/symlink.js</text>
</g>
<!-- ensure/index.js&#45;&gt;ensure/symlink.js -->
<g id="edge15" class="edge"><title>ensure/index.js&#45;&gt;ensure/symlink.js</title>
<path fill="none" stroke="#757575" d="M387.314,-219.541C418.885,-207.424 469.266,-188.089 504.126,-174.71"/>
<polygon fill="#757575" stroke="#757575" points="505.436,-177.956 513.518,-171.106 502.927,-171.421 505.436,-177.956"/>
</g>
<!-- ensure/link.js&#45;&gt;mkdirs/index.js -->
<g id="edge16" class="edge"><title>ensure/link.js&#45;&gt;mkdirs/index.js</title>
<path fill="none" stroke="#757575" d="M743.807,-251.137C760.182,-263.766 787.257,-284.889 810,-303.791 839.343,-328.178 872.426,-357.405 892.996,-375.791"/>
<polygon fill="#757575" stroke="#757575" points="890.705,-378.437 900.488,-382.503 895.375,-373.223 890.705,-378.437"/>
</g>
<!-- ensure/link.js&#45;&gt;path&#45;exists/index.js -->
<g id="edge17" class="edge"><title>ensure/link.js&#45;&gt;path&#45;exists/index.js</title>
<path fill="none" stroke="#757575" d="M777.344,-245.046C795.288,-246.996 816.117,-249.26 835.987,-251.42"/>
<polygon fill="#757575" stroke="#757575" points="835.638,-254.902 845.958,-252.504 836.394,-247.943 835.638,-254.902"/>
</g>
<!-- ensure/symlink.js&#45;&gt;mkdirs/index.js -->
<g id="edge21" class="edge"><title>ensure/symlink.js&#45;&gt;mkdirs/index.js</title>
<path fill="none" stroke="#757575" d="M601.133,-171.102C676.365,-186.434 801.508,-212.613 810,-218.791 810.225,-218.954 874.007,-327.448 901.077,-373.503"/>
<polygon fill="#757575" stroke="#757575" points="898.175,-375.474 906.259,-382.321 904.21,-371.927 898.175,-375.474"/>
</g>
<!-- ensure/symlink.js&#45;&gt;path&#45;exists/index.js -->
<g id="edge22" class="edge"><title>ensure/symlink.js&#45;&gt;path&#45;exists/index.js</title>
<path fill="none" stroke="#757575" d="M574.487,-148.43C625.24,-130.784 731.236,-102.401 810,-138.791 854.805,-159.491 887.29,-210.354 902.793,-239.111"/>
<polygon fill="#757575" stroke="#757575" points="899.84,-241.02 907.56,-248.276 906.05,-237.789 899.84,-241.02"/>
</g>
<!-- ensure/symlink&#45;paths.js -->
<g id="node15" class="node"><title>ensure/symlink&#45;paths.js</title>
<path fill="none" stroke="#c6c5fe" d="M801.833,-91.2908C801.833,-91.2908 654.167,-91.2908 654.167,-91.2908 650.333,-91.2908 646.5,-87.4575 646.5,-83.6241 646.5,-83.6241 646.5,-75.9575 646.5,-75.9575 646.5,-72.1241 650.333,-68.2908 654.167,-68.2908 654.167,-68.2908 801.833,-68.2908 801.833,-68.2908 805.667,-68.2908 809.5,-72.1241 809.5,-75.9575 809.5,-75.9575 809.5,-83.6241 809.5,-83.6241 809.5,-87.4575 805.667,-91.2908 801.833,-91.2908"/>
<text text-anchor="middle" x="728" y="-76.0908" font-family="Arial" font-size="14.00" fill="#c6c5fe">ensure/symlink&#45;paths.js</text>
</g>
<!-- ensure/symlink.js&#45;&gt;ensure/symlink&#45;paths.js -->
<g id="edge19" class="edge"><title>ensure/symlink.js&#45;&gt;ensure/symlink&#45;paths.js</title>
<path fill="none" stroke="#757575" d="M563.856,-148.379C583.774,-136.644 616.341,-118.358 646,-105.791 655.893,-101.599 666.705,-97.6897 677.114,-94.2412"/>
<polygon fill="#757575" stroke="#757575" points="678.481,-97.478 686.928,-91.0818 676.336,-90.8148 678.481,-97.478"/>
</g>
<!-- ensure/symlink&#45;type.js -->
<g id="node16" class="node"><title>ensure/symlink&#45;type.js</title>
<path fill="none" stroke="#cfffac" d="M797.833,-171.291C797.833,-171.291 658.167,-171.291 658.167,-171.291 654.333,-171.291 650.5,-167.457 650.5,-163.624 650.5,-163.624 650.5,-155.957 650.5,-155.957 650.5,-152.124 654.333,-148.291 658.167,-148.291 658.167,-148.291 797.833,-148.291 797.833,-148.291 801.667,-148.291 805.5,-152.124 805.5,-155.957 805.5,-155.957 805.5,-163.624 805.5,-163.624 805.5,-167.457 801.667,-171.291 797.833,-171.291"/>
<text text-anchor="middle" x="728" y="-156.091" font-family="Arial" font-size="14.00" fill="#cfffac">ensure/symlink&#45;type.js</text>
</g>
<!-- ensure/symlink.js&#45;&gt;ensure/symlink&#45;type.js -->
<g id="edge20" class="edge"><title>ensure/symlink.js&#45;&gt;ensure/symlink&#45;type.js</title>
<path fill="none" stroke="#757575" d="M606.11,-159.791C617.052,-159.791 628.643,-159.791 640.145,-159.791"/>
<polygon fill="#757575" stroke="#757575" points="640.212,-163.291 650.212,-159.791 640.212,-156.291 640.212,-163.291"/>
</g>
<!-- ensure/symlink&#45;paths.js&#45;&gt;path&#45;exists/index.js -->
<g id="edge18" class="edge"><title>ensure/symlink&#45;paths.js&#45;&gt;path&#45;exists/index.js</title>
<path fill="none" stroke="#757575" d="M782.069,-91.1663C791.947,-94.8036 801.744,-99.5675 810,-105.791 857.28,-141.432 889.821,-205.441 904.374,-238.594"/>
<polygon fill="#757575" stroke="#757575" points="901.326,-240.369 908.463,-248.199 907.766,-237.627 901.326,-240.369"/>
</g>
<!-- index.js -->
<g id="node18" class="node"><title>index.js</title>
<path fill="none" stroke="#c6c5fe" d="M56.3333,-465.291C56.3333,-465.291 7.66667,-465.291 7.66667,-465.291 3.83333,-465.291 0,-461.457 0,-457.624 0,-457.624 0,-449.957 0,-449.957 0,-446.124 3.83333,-442.291 7.66667,-442.291 7.66667,-442.291 56.3333,-442.291 56.3333,-442.291 60.1667,-442.291 64,-446.124 64,-449.957 64,-449.957 64,-457.624 64,-457.624 64,-461.457 60.1667,-465.291 56.3333,-465.291"/>
<text text-anchor="middle" x="32" y="-450.091" font-family="Arial" font-size="14.00" fill="#c6c5fe">index.js</text>
</g>
<!-- index.js&#45;&gt;mkdirs/index.js -->
<g id="edge29" class="edge"><title>index.js&#45;&gt;mkdirs/index.js</title>
<path fill="none" stroke="#757575" d="M61.9886,-465.123C73.6501,-469.316 87.317,-473.777 100,-476.791 211.726,-503.337 241.164,-511.791 356,-511.791 356,-511.791 356,-511.791 545,-511.791 665.566,-511.791 697.657,-497.554 810,-453.791 838.556,-442.667 868.54,-424.335 888.745,-410.857"/>
<polygon fill="#757575" stroke="#757575" points="890.727,-413.743 897.037,-405.232 886.796,-407.95 890.727,-413.743"/>
</g>
<!-- index.js&#45;&gt;copy&#45;sync/index.js -->
<g id="edge23" class="edge"><title>index.js&#45;&gt;copy&#45;sync/index.js</title>
<path fill="none" stroke="#757575" d="M32.6114,-465.23C32.022,-502.292 35.5156,-620.06 100,-678.791 201.343,-771.091 370.852,-778.369 468.174,-773.702"/>
<polygon fill="#757575" stroke="#757575" points="468.43,-777.193 478.229,-773.165 468.056,-770.203 468.43,-777.193"/>
</g>
<!-- index.js&#45;&gt;path&#45;exists/index.js -->
<g id="edge33" class="edge"><title>index.js&#45;&gt;path&#45;exists/index.js</title>
<path fill="none" stroke="#757575" d="M34.2952,-442.296C38.5264,-408.883 54.3973,-309.964 100,-243.791 182.555,-123.997 210.515,-39.7908 356,-39.7908 356,-39.7908 356,-39.7908 545,-39.7908 663.08,-39.7908 711.517,6.35506 810,-58.7908 873.779,-100.98 900.16,-195.54 909.108,-238.193"/>
<polygon fill="#757575" stroke="#757575" points="905.69,-238.951 911.062,-248.083 912.558,-237.594 905.69,-238.951"/>
</g>
<!-- index.js&#45;&gt;copy/index.js -->
<g id="edge24" class="edge"><title>index.js&#45;&gt;copy/index.js</title>
<path fill="none" stroke="#757575" d="M35.7908,-465.221C42.3583,-489.442 61.2426,-545.837 100,-571.791 218.308,-651.017 394.89,-645.385 485.226,-635.879"/>
<polygon fill="#757575" stroke="#757575" points="485.724,-639.345 495.278,-634.767 484.954,-632.388 485.724,-639.345"/>
</g>
<!-- index.js&#45;&gt;empty/index.js -->
<g id="edge25" class="edge"><title>index.js&#45;&gt;empty/index.js</title>
<path fill="none" stroke="#757575" d="M64.2641,-451.855C117.046,-448.587 224.783,-441.916 293.529,-437.659"/>
<polygon fill="#757575" stroke="#757575" points="294.031,-441.135 303.796,-437.023 293.598,-434.148 294.031,-441.135"/>
</g>
<!-- index.js&#45;&gt;remove/index.js -->
<g id="edge34" class="edge"><title>index.js&#45;&gt;remove/index.js</title>
<path fill="none" stroke="#757575" d="M64.3198,-457.179C75.5576,-458.24 88.3331,-459.269 100,-459.791 251.872,-466.577 290.934,-470.828 442,-453.791 455.936,-452.219 470.816,-449.732 484.754,-447.039"/>
<polygon fill="#757575" stroke="#757575" points="485.587,-450.442 494.708,-445.051 484.216,-443.577 485.587,-450.442"/>
</g>
<!-- index.js&#45;&gt;ensure/index.js -->
<g id="edge26" class="edge"><title>index.js&#45;&gt;ensure/index.js</title>
<path fill="none" stroke="#757575" d="M35.2724,-442.525C41.1756,-416.095 59.4456,-349.567 100,-312.791 153.077,-264.658 234.568,-244.765 291.301,-236.552"/>
<polygon fill="#757575" stroke="#757575" points="291.806,-240.015 301.24,-235.195 290.859,-233.08 291.806,-240.015"/>
</g>
<!-- index.js&#45;&gt;fs/index.js -->
<g id="edge27" class="edge"><title>index.js&#45;&gt;fs/index.js</title>
<path fill="none" stroke="#757575" d="M33.3864,-442.304C35.5607,-384.547 48.0974,-126.411 100,-69.7908 179.549,16.9889 238.277,-1.79079 356,-1.79079 356,-1.79079 356,-1.79079 915,-1.79079 1082.92,-1.79079 1187,-233.219 1215.21,-304.891"/>
<polygon fill="#757575" stroke="#757575" points="1211.96,-306.187 1218.82,-314.259 1218.49,-303.67 1211.96,-306.187"/>
</g>
<!-- json/index.js -->
<g id="node19" class="node"><title>json/index.js</title>
<path fill="none" stroke="#c6c5fe" d="M207.333,-345.291C207.333,-345.291 128.667,-345.291 128.667,-345.291 124.833,-345.291 121,-341.457 121,-337.624 121,-337.624 121,-329.957 121,-329.957 121,-326.124 124.833,-322.291 128.667,-322.291 128.667,-322.291 207.333,-322.291 207.333,-322.291 211.167,-322.291 215,-326.124 215,-329.957 215,-329.957 215,-337.624 215,-337.624 215,-341.457 211.167,-345.291 207.333,-345.291"/>
<text text-anchor="middle" x="168" y="-330.091" font-family="Arial" font-size="14.00" fill="#c6c5fe">json/index.js</text>
</g>
<!-- index.js&#45;&gt;json/index.js -->
<g id="edge28" class="edge"><title>index.js&#45;&gt;json/index.js</title>
<path fill="none" stroke="#757575" d="M41.8115,-442.509C53.9788,-427.314 77.0348,-399.865 100,-379.791 112.139,-369.18 126.789,-358.877 139.291,-350.721"/>
<polygon fill="#757575" stroke="#757575" points="141.407,-353.523 147.948,-345.188 137.637,-347.624 141.407,-353.523"/>
</g>
<!-- move&#45;sync/index.js -->
<g id="node20" class="node"><title>move&#45;sync/index.js</title>
<path fill="none" stroke="#c6c5fe" d="M228.333,-670.291C228.333,-670.291 107.667,-670.291 107.667,-670.291 103.833,-670.291 100,-666.457 100,-662.624 100,-662.624 100,-654.957 100,-654.957 100,-651.124 103.833,-647.291 107.667,-647.291 107.667,-647.291 228.333,-647.291 228.333,-647.291 232.167,-647.291 236,-651.124 236,-654.957 236,-654.957 236,-662.624 236,-662.624 236,-666.457 232.167,-670.291 228.333,-670.291"/>
<text text-anchor="middle" x="168" y="-655.091" font-family="Arial" font-size="14.00" fill="#c6c5fe">move&#45;sync/index.js</text>
</g>
<!-- index.js&#45;&gt;move&#45;sync/index.js -->
<g id="edge30" class="edge"><title>index.js&#45;&gt;move&#45;sync/index.js</title>
<path fill="none" stroke="#757575" d="M35.292,-465.135C41.444,-493.236 60.59,-567.238 100,-614.791 109.199,-625.89 121.924,-635.212 133.816,-642.377"/>
<polygon fill="#757575" stroke="#757575" points="132.254,-645.515 142.674,-647.429 135.722,-639.435 132.254,-645.515"/>
</g>
<!-- move/index.js -->
<g id="node21" class="node"><title>move/index.js</title>
<path fill="none" stroke="#c6c5fe" d="M211.333,-563.291C211.333,-563.291 124.667,-563.291 124.667,-563.291 120.833,-563.291 117,-559.457 117,-555.624 117,-555.624 117,-547.957 117,-547.957 117,-544.124 120.833,-540.291 124.667,-540.291 124.667,-540.291 211.333,-540.291 211.333,-540.291 215.167,-540.291 219,-544.124 219,-547.957 219,-547.957 219,-555.624 219,-555.624 219,-559.457 215.167,-563.291 211.333,-563.291"/>
<text text-anchor="middle" x="168" y="-548.091" font-family="Arial" font-size="14.00" fill="#c6c5fe">move/index.js</text>
</g>
<!-- index.js&#45;&gt;move/index.js -->
<g id="edge31" class="edge"><title>index.js&#45;&gt;move/index.js</title>
<path fill="none" stroke="#757575" d="M41.0566,-465.284C52.5317,-480.905 74.9841,-508.832 100,-525.791 106.035,-529.882 112.806,-533.461 119.663,-536.547"/>
<polygon fill="#757575" stroke="#757575" points="118.428,-539.824 129.004,-540.452 121.128,-533.366 118.428,-539.824"/>
</g>
<!-- output/index.js -->
<g id="node22" class="node"><title>output/index.js</title>
<path fill="none" stroke="#c6c5fe" d="M589.833,-324.291C589.833,-324.291 498.167,-324.291 498.167,-324.291 494.333,-324.291 490.5,-320.457 490.5,-316.624 490.5,-316.624 490.5,-308.957 490.5,-308.957 490.5,-305.124 494.333,-301.291 498.167,-301.291 498.167,-301.291 589.833,-301.291 589.833,-301.291 593.667,-301.291 597.5,-305.124 597.5,-308.957 597.5,-308.957 597.5,-316.624 597.5,-316.624 597.5,-320.457 593.667,-324.291 589.833,-324.291"/>
<text text-anchor="middle" x="544" y="-309.091" font-family="Arial" font-size="14.00" fill="#c6c5fe">output/index.js</text>
</g>
<!-- index.js&#45;&gt;output/index.js -->
<g id="edge32" class="edge"><title>index.js&#45;&gt;output/index.js</title>
<path fill="none" stroke="#757575" d="M64.2862,-445.981C75.5209,-443.266 88.303,-440.28 100,-437.791 175.625,-421.695 369.751,-401.329 442,-373.791 470.55,-362.908 500.118,-343.999 519.826,-330.111"/>
<polygon fill="#757575" stroke="#757575" points="522.07,-332.809 528.148,-324.13 517.984,-327.124 522.07,-332.809"/>
</g>
<!-- json/jsonfile.js -->
<g id="node23" class="node"><title>json/jsonfile.js</title>
<path fill="none" stroke="#cfffac" d="M401.333,-365.291C401.333,-365.291 312.667,-365.291 312.667,-365.291 308.833,-365.291 305,-361.457 305,-357.624 305,-357.624 305,-349.957 305,-349.957 305,-346.124 308.833,-342.291 312.667,-342.291 312.667,-342.291 401.333,-342.291 401.333,-342.291 405.167,-342.291 409,-346.124 409,-349.957 409,-349.957 409,-357.624 409,-357.624 409,-361.457 405.167,-365.291 401.333,-365.291"/>
<text text-anchor="middle" x="357" y="-350.091" font-family="Arial" font-size="14.00" fill="#cfffac">json/jsonfile.js</text>
</g>
<!-- json/index.js&#45;&gt;json/jsonfile.js -->
<g id="edge35" class="edge"><title>json/index.js&#45;&gt;json/jsonfile.js</title>
<path fill="none" stroke="#757575" d="M215.225,-338.735C239.191,-341.298 268.78,-344.462 294.636,-347.228"/>
<polygon fill="#757575" stroke="#757575" points="294.398,-350.722 304.714,-348.306 295.143,-343.762 294.398,-350.722"/>
</g>
<!-- json/output&#45;json&#45;sync.js -->
<g id="node24" class="node"><title>json/output&#45;json&#45;sync.js</title>
<path fill="none" stroke="#c6c5fe" d="M430.833,-283.291C430.833,-283.291 283.167,-283.291 283.167,-283.291 279.333,-283.291 275.5,-279.457 275.5,-275.624 275.5,-275.624 275.5,-267.957 275.5,-267.957 275.5,-264.124 279.333,-260.291 283.167,-260.291 283.167,-260.291 430.833,-260.291 430.833,-260.291 434.667,-260.291 438.5,-264.124 438.5,-267.957 438.5,-267.957 438.5,-275.624 438.5,-275.624 438.5,-279.457 434.667,-283.291 430.833,-283.291"/>
<text text-anchor="middle" x="357" y="-268.091" font-family="Arial" font-size="14.00" fill="#c6c5fe">json/output&#45;json&#45;sync.js</text>
</g>
<!-- json/index.js&#45;&gt;json/output&#45;json&#45;sync.js -->
<g id="edge36" class="edge"><title>json/index.js&#45;&gt;json/output&#45;json&#45;sync.js</title>
<path fill="none" stroke="#757575" d="M193.581,-322.519C214.204,-313.367 244.602,-300.581 272,-291.791 278.87,-289.587 286.125,-287.505 293.378,-285.576"/>
<polygon fill="#757575" stroke="#757575" points="294.416,-288.923 303.231,-283.045 292.675,-282.144 294.416,-288.923"/>
</g>
<!-- json/output&#45;json.js -->
<g id="node25" class="node"><title>json/output&#45;json.js</title>
<path fill="none" stroke="#c6c5fe" d="M413.833,-324.291C413.833,-324.291 300.167,-324.291 300.167,-324.291 296.333,-324.291 292.5,-320.457 292.5,-316.624 292.5,-316.624 292.5,-308.957 292.5,-308.957 292.5,-305.124 296.333,-301.291 300.167,-301.291 300.167,-301.291 413.833,-301.291 413.833,-301.291 417.667,-301.291 421.5,-305.124 421.5,-308.957 421.5,-308.957 421.5,-316.624 421.5,-316.624 421.5,-320.457 417.667,-324.291 413.833,-324.291"/>
<text text-anchor="middle" x="357" y="-309.091" font-family="Arial" font-size="14.00" fill="#c6c5fe">json/output&#45;json.js</text>
</g>
<!-- json/index.js&#45;&gt;json/output&#45;json.js -->
<g id="edge37" class="edge"><title>json/index.js&#45;&gt;json/output&#45;json.js</title>
<path fill="none" stroke="#757575" d="M215.225,-328.6C235.39,-326.335 259.536,-323.624 282.091,-321.091"/>
<polygon fill="#757575" stroke="#757575" points="282.774,-324.536 292.321,-319.942 281.993,-317.58 282.774,-324.536"/>
</g>
<!-- move&#45;sync/move&#45;sync.js -->
<g id="node27" class="node"><title>move&#45;sync/move&#45;sync.js</title>
<path fill="none" stroke="#c6c5fe" d="M434.333,-679.291C434.333,-679.291 279.667,-679.291 279.667,-679.291 275.833,-679.291 272,-675.457 272,-671.624 272,-671.624 272,-663.957 272,-663.957 272,-660.124 275.833,-656.291 279.667,-656.291 279.667,-656.291 434.333,-656.291 434.333,-656.291 438.167,-656.291 442,-660.124 442,-663.957 442,-663.957 442,-671.624 442,-671.624 442,-675.457 438.167,-679.291 434.333,-679.291"/>
<text text-anchor="middle" x="357" y="-664.091" font-family="Arial" font-size="14.00" fill="#c6c5fe">move&#45;sync/move&#45;sync.js</text>
</g>
<!-- move&#45;sync/index.js&#45;&gt;move&#45;sync/move&#45;sync.js -->
<g id="edge42" class="edge"><title>move&#45;sync/index.js&#45;&gt;move&#45;sync/move&#45;sync.js</title>
<path fill="none" stroke="#757575" d="M236.247,-662.027C244.526,-662.426 253.103,-662.839 261.69,-663.252"/>
<polygon fill="#757575" stroke="#757575" points="261.599,-666.751 271.756,-663.736 261.936,-659.759 261.599,-666.751"/>
</g>
<!-- move/move.js -->
<g id="node28" class="node"><title>move/move.js</title>
<path fill="none" stroke="#c6c5fe" d="M400.833,-563.291C400.833,-563.291 313.167,-563.291 313.167,-563.291 309.333,-563.291 305.5,-559.457 305.5,-555.624 305.5,-555.624 305.5,-547.957 305.5,-547.957 305.5,-544.124 309.333,-540.291 313.167,-540.291 313.167,-540.291 400.833,-540.291 400.833,-540.291 404.667,-540.291 408.5,-544.124 408.5,-547.957 408.5,-547.957 408.5,-555.624 408.5,-555.624 408.5,-559.457 404.667,-563.291 400.833,-563.291"/>
<text text-anchor="middle" x="357" y="-548.091" font-family="Arial" font-size="14.00" fill="#c6c5fe">move/move.js</text>
</g>
<!-- move/index.js&#45;&gt;move/move.js -->
<g id="edge47" class="edge"><title>move/index.js&#45;&gt;move/move.js</title>
<path fill="none" stroke="#757575" d="M219.113,-551.791C242.494,-551.791 270.528,-551.791 295.119,-551.791"/>
<polygon fill="#757575" stroke="#757575" points="295.424,-555.291 305.424,-551.791 295.424,-548.291 295.424,-555.291"/>
</g>
<!-- output/index.js&#45;&gt;mkdirs/index.js -->
<g id="edge53" class="edge"><title>output/index.js&#45;&gt;mkdirs/index.js</title>
<path fill="none" stroke="#757575" d="M596.169,-324.053C663.129,-338.792 780.344,-364.592 851.891,-380.34"/>
<polygon fill="#757575" stroke="#757575" points="851.155,-383.762 861.674,-382.493 852.66,-376.926 851.155,-383.762"/>
</g>
<!-- output/index.js&#45;&gt;path&#45;exists/index.js -->
<g id="edge54" class="edge"><title>output/index.js&#45;&gt;path&#45;exists/index.js</title>
<path fill="none" stroke="#757575" d="M597.725,-305.197C659.951,-296.235 763.973,-281.254 835.402,-270.967"/>
<polygon fill="#757575" stroke="#757575" points="836.297,-274.374 845.695,-269.484 835.299,-267.445 836.297,-274.374"/>
</g>
<!-- json/output&#45;json&#45;sync.js&#45;&gt;output/index.js -->
<g id="edge38" class="edge"><title>json/output&#45;json&#45;sync.js&#45;&gt;output/index.js</title>
<path fill="none" stroke="#757575" d="M409.042,-283.103C431.689,-288.122 458.516,-294.067 482.192,-299.314"/>
<polygon fill="#757575" stroke="#757575" points="481.604,-302.769 492.125,-301.516 483.119,-295.935 481.604,-302.769"/>
</g>
<!-- json/output&#45;json.js&#45;&gt;output/index.js -->
<g id="edge39" class="edge"><title>json/output&#45;json.js&#45;&gt;output/index.js</title>
<path fill="none" stroke="#757575" d="M421.667,-312.791C440.539,-312.791 461.19,-312.791 480.019,-312.791"/>
<polygon fill="#757575" stroke="#757575" points="480.269,-316.291 490.269,-312.791 480.269,-309.291 480.269,-316.291"/>
</g>
<!-- mkdirs/make&#45;dir.js&#45;&gt;fs/index.js -->
<g id="edge41" class="edge"><title>mkdirs/make&#45;dir.js&#45;&gt;fs/index.js</title>
<path fill="none" stroke="#757575" d="M1119.8,-358.46C1137.47,-352.865 1158.98,-346.057 1177.78,-340.106"/>
<polygon fill="#757575" stroke="#757575" points="1178.85,-343.438 1187.33,-337.083 1176.74,-336.765 1178.85,-343.438"/>
</g>
<!-- move&#45;sync/move&#45;sync.js&#45;&gt;mkdirs/index.js -->
<g id="edge44" class="edge"><title>move&#45;sync/move&#45;sync.js&#45;&gt;mkdirs/index.js</title>
<path fill="none" stroke="#757575" d="M442.243,-663.398C491.324,-660.267 554.324,-655.267 610,-647.791 699.674,-635.749 738.345,-665.036 810,-609.791 874.757,-559.863 900.823,-459.03 909.414,-415.079"/>
<polygon fill="#757575" stroke="#757575" points="912.865,-415.664 911.234,-405.196 905.981,-414.396 912.865,-415.664"/>
</g>
<!-- move&#45;sync/move&#45;sync.js&#45;&gt;util/stat.js -->
<g id="edge46" class="edge"><title>move&#45;sync/move&#45;sync.js&#45;&gt;util/stat.js</title>
<path fill="none" stroke="#757575" d="M402.017,-679.089C458.181,-692.869 558.539,-715.367 646,-723.791 718.553,-730.779 739.225,-741.218 810,-723.791 838.902,-716.674 868.674,-699.846 888.729,-686.852"/>
<polygon fill="#757575" stroke="#757575" points="890.836,-689.654 897.222,-681.2 886.958,-683.827 890.836,-689.654"/>
</g>
<!-- move&#45;sync/move&#45;sync.js&#45;&gt;copy&#45;sync/index.js -->
<g id="edge43" class="edge"><title>move&#45;sync/move&#45;sync.js&#45;&gt;copy&#45;sync/index.js</title>
<path fill="none" stroke="#757575" d="M412.269,-679.191C422.687,-682.834 433.108,-687.593 442,-693.791 463.587,-708.836 457.035,-724.891 478,-740.791 483.335,-744.837 489.385,-748.346 495.594,-751.361"/>
<polygon fill="#757575" stroke="#757575" points="494.181,-754.563 504.74,-755.431 497.027,-748.168 494.181,-754.563"/>
</g>
<!-- move&#45;sync/move&#45;sync.js&#45;&gt;remove/index.js -->
<g id="edge45" class="edge"><title>move&#45;sync/move&#45;sync.js&#45;&gt;remove/index.js</title>
<path fill="none" stroke="#757575" d="M368.415,-656.541C384.627,-638.887 416.664,-603.423 442,-571.791 474.85,-530.777 510.555,-480.511 529.464,-453.391"/>
<polygon fill="#757575" stroke="#757575" points="532.374,-455.337 535.205,-445.128 526.625,-451.343 532.374,-455.337"/>
</g>
<!-- move/move.js&#45;&gt;mkdirs/index.js -->
<g id="edge49" class="edge"><title>move/move.js&#45;&gt;mkdirs/index.js</title>
<path fill="none" stroke="#757575" d="M408.816,-554.041C511.898,-557.776 741.601,-561.645 810,-525.791 856.723,-501.298 888.965,-445.193 903.776,-414.606"/>
<polygon fill="#757575" stroke="#757575" points="907.065,-415.835 908.126,-405.294 900.723,-412.873 907.065,-415.835"/>
</g>
<!-- move/move.js&#45;&gt;util/stat.js -->
<g id="edge52" class="edge"><title>move/move.js&#45;&gt;util/stat.js</title>
<path fill="none" stroke="#757575" d="M408.631,-557.35C473.089,-565.34 579.736,-581.904 610,-606.791 641.057,-632.33 612.383,-667.729 646,-689.791 717.341,-736.61 823.662,-705.998 878.111,-684.93"/>
<polygon fill="#757575" stroke="#757575" points="879.659,-688.08 887.654,-681.128 877.068,-681.577 879.659,-688.08"/>
</g>
<!-- move/move.js&#45;&gt;path&#45;exists/index.js -->
<g id="edge50" class="edge"><title>move/move.js&#45;&gt;path&#45;exists/index.js</title>
<path fill="none" stroke="#757575" d="M408.785,-546.573C513.462,-534.913 748.575,-503.773 810,-453.791 840.557,-428.926 827.923,-407.794 846,-372.791 863.307,-339.278 886.213,-301.908 900.262,-279.649"/>
<polygon fill="#757575" stroke="#757575" points="903.292,-281.407 905.699,-271.089 897.383,-277.654 903.292,-281.407"/>
</g>
<!-- move/move.js&#45;&gt;copy/index.js -->
<g id="edge48" class="edge"><title>move/move.js&#45;&gt;copy/index.js</title>
<path fill="none" stroke="#757575" d="M385.159,-563.113C419.845,-577.571 475.702,-600.852 478,-601.791 486.759,-605.367 496.201,-609.173 505.102,-612.737"/>
<polygon fill="#757575" stroke="#757575" points="503.904,-616.027 514.488,-616.488 506.501,-609.527 503.904,-616.027"/>
</g>
<!-- move/move.js&#45;&gt;remove/index.js -->
<g id="edge51" class="edge"><title>move/move.js&#45;&gt;remove/index.js</title>
<path fill="none" stroke="#757575" d="M372.904,-540.506C389.724,-527.754 417.884,-506.356 442,-487.791 458.062,-475.426 460.417,-469.876 478,-459.791 484.894,-455.836 492.507,-452.206 500.022,-448.992"/>
<polygon fill="#757575" stroke="#757575" points="501.493,-452.172 509.427,-445.15 498.846,-445.691 501.493,-452.172"/>
</g>
</g>
</svg>
