<?xml version="1.0" encoding="UTF-8" standalone="no"?>
<!DOCTYPE svg PUBLIC "-//W3C//DTD SVG 1.1//EN"
 "http://www.w3.org/Graphics/SVG/1.1/DTD/svg11.dtd">
<!-- Generated by graphviz version 2.40.1 (20161225.0304)
 -->
<!-- Title: %0 Pages: 1 -->
<svg width="337pt" height="149pt"
 viewBox="0.00 0.00 337.32 149.40" xmlns="http://www.w3.org/2000/svg" xmlns:xlink="http://www.w3.org/1999/xlink">
<g id="graph0" class="graph" transform="scale(1 1) rotate(0) translate(4 145.4)">
<title>%0</title>
<polygon fill="#ffffff" stroke="transparent" points="-4,4 -4,-145.4 333.3182,-145.4 333.3182,4 -4,4"/>
<text text-anchor="middle" x="164.6591" y="-123" font-family="Roboto Condensed, sans-serif" font-size="16.00" fill="#000000">fs&#45;extra</text>
<!-- fs&#45;extra@9.0.1 -->
<g id="node1" class="node">
<title>fs&#45;extra@9.0.1</title>
<path fill="none" stroke="#000000" d="M65.1075,-57.3011C65.1075,-57.3011 6.6087,-57.3011 6.6087,-57.3011 3.375,-57.3011 .1413,-54.0674 .1413,-50.8337 .1413,-50.8337 .1413,-44.3663 .1413,-44.3663 .1413,-41.1326 3.375,-37.8989 6.6087,-37.8989 6.6087,-37.8989 65.1075,-37.8989 65.1075,-37.8989 68.3412,-37.8989 71.5749,-41.1326 71.5749,-44.3663 71.5749,-44.3663 71.5749,-50.8337 71.5749,-50.8337 71.5749,-54.0674 68.3412,-57.3011 65.1075,-57.3011"/>
<text text-anchor="middle" x="35.8581" y="-44.3" font-family="Roboto Condensed, sans-serif" font-size="11.00" fill="#000000">fs&#45;extra@9.0.1</text>
</g>
<!-- at&#45;least&#45;node@1.0.0 -->
<g id="node2" class="node">
<title>at&#45;least&#45;node@1.0.0</title>
<path fill="none" stroke="#000000" d="M196.1497,-114.3011C196.1497,-114.3011 114.2166,-114.3011 114.2166,-114.3011 110.9829,-114.3011 107.7492,-111.0674 107.7492,-107.8337 107.7492,-107.8337 107.7492,-101.3663 107.7492,-101.3663 107.7492,-98.1326 110.9829,-94.8989 114.2166,-94.8989 114.2166,-94.8989 196.1497,-94.8989 196.1497,-94.8989 199.3834,-94.8989 202.6171,-98.1326 202.6171,-101.3663 202.6171,-101.3663 202.6171,-107.8337 202.6171,-107.8337 202.6171,-111.0674 199.3834,-114.3011 196.1497,-114.3011"/>
<text text-anchor="middle" x="155.1832" y="-101.3" font-family="Roboto Condensed, sans-serif" font-size="11.00" fill="#000000">at&#45;least&#45;node@1.0.0</text>
</g>
<!-- fs&#45;extra@9.0.1&#45;&gt;at&#45;least&#45;node@1.0.0 -->
<g id="edge1" class="edge">
<title>fs&#45;extra@9.0.1&#45;&gt;at&#45;least&#45;node@1.0.0</title>
<path fill="none" stroke="#000000" d="M56.1,-57.2693C75.2139,-66.3997 104.0982,-80.1974 125.7566,-90.5433"/>
<polygon fill="#000000" stroke="#000000" points="124.31,-93.7311 134.842,-94.8833 127.3273,-87.4147 124.31,-93.7311"/>
</g>
<!-- jsonfile@6.0.1 -->
<g id="node3" class="node">
<title>jsonfile@6.0.1</title>
<path fill="none" stroke="#000000" d="M184.3392,-38.3011C184.3392,-38.3011 126.0271,-38.3011 126.0271,-38.3011 122.7934,-38.3011 119.5597,-35.0674 119.5597,-31.8337 119.5597,-31.8337 119.5597,-25.3663 119.5597,-25.3663 119.5597,-22.1326 122.7934,-18.8989 126.0271,-18.8989 126.0271,-18.8989 184.3392,-18.8989 184.3392,-18.8989 187.5729,-18.8989 190.8066,-22.1326 190.8066,-25.3663 190.8066,-25.3663 190.8066,-31.8337 190.8066,-31.8337 190.8066,-35.0674 187.5729,-38.3011 184.3392,-38.3011"/>
<text text-anchor="middle" x="155.1832" y="-25.3" font-family="Roboto Condensed, sans-serif" font-size="11.00" fill="#000000">jsonfile@6.0.1</text>
</g>
<!-- fs&#45;extra@9.0.1&#45;&gt;jsonfile@6.0.1 -->
<g id="edge2" class="edge">
<title>fs&#45;extra@9.0.1&#45;&gt;jsonfile@6.0.1</title>
<path fill="none" stroke="#000000" d="M71.6595,-41.8994C83.4585,-40.0206 96.748,-37.9046 109.1978,-35.9222"/>
<polygon fill="#000000" stroke="#000000" points="110.0818,-39.3256 119.407,-34.2966 108.981,-32.4127 110.0818,-39.3256"/>
</g>
<!-- universalify@2.0.0 -->
<g id="node4" class="node">
<title>universalify@2.0.0</title>
<path fill="none" stroke="#000000" d="M322.6855,-56.3011C322.6855,-56.3011 245.2828,-56.3011 245.2828,-56.3011 242.0491,-56.3011 238.8154,-53.0674 238.8154,-49.8337 238.8154,-49.8337 238.8154,-43.3663 238.8154,-43.3663 238.8154,-40.1326 242.0491,-36.8989 245.2828,-36.8989 245.2828,-36.8989 322.6855,-36.8989 322.6855,-36.8989 325.9192,-36.8989 329.1529,-40.1326 329.1529,-43.3663 329.1529,-43.3663 329.1529,-49.8337 329.1529,-49.8337 329.1529,-53.0674 325.9192,-56.3011 322.6855,-56.3011"/>
<text text-anchor="middle" x="283.9842" y="-43.3" font-family="Roboto Condensed, sans-serif" font-size="11.00" fill="#000000">universalify@2.0.0</text>
</g>
<!-- fs&#45;extra@9.0.1&#45;&gt;universalify@2.0.0 -->
<g id="edge3" class="edge">
<title>fs&#45;extra@9.0.1&#45;&gt;universalify@2.0.0</title>
<path fill="none" stroke="#000000" d="M71.6482,-47.7271C105.4233,-47.8169 157.4781,-47.8777 202.6501,-47.6 211.0743,-47.5482 219.9891,-47.4663 228.7083,-47.371"/>
<polygon fill="#000000" stroke="#000000" points="228.8542,-50.8697 238.813,-47.2541 228.7731,-43.8701 228.8542,-50.8697"/>
</g>
<!-- graceful&#45;fs@4.2.4 -->
<g id="node5" class="node">
<title>graceful&#45;fs@4.2.4</title>
<path fill="none" stroke="#000000" d="M320.2781,-19.3011C320.2781,-19.3011 247.6902,-19.3011 247.6902,-19.3011 244.4565,-19.3011 241.2228,-16.0674 241.2228,-12.8337 241.2228,-12.8337 241.2228,-6.3663 241.2228,-6.3663 241.2228,-3.1326 244.4565,.1011 247.6902,.1011 247.6902,.1011 320.2781,.1011 320.2781,.1011 323.5118,.1011 326.7455,-3.1326 326.7455,-6.3663 326.7455,-6.3663 326.7455,-12.8337 326.7455,-12.8337 326.7455,-16.0674 323.5118,-19.3011 320.2781,-19.3011"/>
<text text-anchor="middle" x="283.9842" y="-6.3" font-family="Roboto Condensed, sans-serif" font-size="11.00" fill="#000000">graceful&#45;fs@4.2.4</text>
</g>
<!-- fs&#45;extra@9.0.1&#45;&gt;graceful&#45;fs@4.2.4 -->
<g id="edge5" class="edge">
<title>fs&#45;extra@9.0.1&#45;&gt;graceful&#45;fs@4.2.4</title>
<path fill="none" stroke="#000000" d="M49.349,-37.8706C63.2103,-28.5221 85.801,-15.0378 107.7162,-9.6 148.1304,.428 195.3804,-.2041 230.7822,-2.9973"/>
<polygon fill="#000000" stroke="#000000" points="230.6354,-6.4977 240.9016,-3.8794 231.2434,.4759 230.6354,-6.4977"/>
</g>
<!-- jsonfile@6.0.1&#45;&gt;universalify@2.0.0 -->
<g id="edge4" class="edge">
<title>jsonfile@6.0.1&#45;&gt;universalify@2.0.0</title>
<path fill="none" stroke="#000000" d="M191.0614,-33.614C202.6909,-35.2392 215.8753,-37.0818 228.583,-38.8577"/>
<polygon fill="#000000" stroke="#000000" points="228.245,-42.3444 238.6332,-40.2622 229.2139,-35.4117 228.245,-42.3444"/>
</g>
<!-- jsonfile@6.0.1&#45;&gt;graceful&#45;fs@4.2.4 -->
<g id="edge6" class="edge">
<title>jsonfile@6.0.1&#45;&gt;graceful&#45;fs@4.2.4</title>
<path fill="none" stroke="#000000" d="M191.0614,-23.3074C203.3992,-21.4874 217.4871,-19.4093 230.8991,-17.4308"/>
<polygon fill="#000000" stroke="#000000" points="231.6012,-20.8652 240.9834,-15.9432 230.5796,-13.9401 231.6012,-20.8652"/>
</g>
</g>
</svg>
